<?xml version="1.0" encoding="UTF-8"?>
<svg id="Layer_2" data-name="Layer 2" xmlns="http://www.w3.org/2000/svg" viewBox="0 0 1308 1183.74">
  <defs>
    <style>
      .cls-1 {
        fill: #fff;
      }

      .cls-2 {
        fill: #35a651;
      }
    </style>
  </defs>
  <g id="Layer_1-2" data-name="Layer 1">
    <g>
      <g>
        <path class="cls-2" d="M780.57,55.31l-.05,.05s.09,0,.14-.05h-.09Zm524.9,347.55c-1.93-86.11-34.91-167.32-88.31-232.55-5.85-7.15-11.88-14.04-18.18-20.7-9.72-10.39-19.93-20.2-30.55-29.51-50.07-43.82-109.77-75.9-172-95.69-92.9-29.47-193.86-32.08-288.25-8.77-73.87,18.18-144.87,53.45-203.26,104.51-10.12,8.86-19.84,18.22-29.2,28.03-.36,.4-.76,.81-1.12,1.26-58.76,62.31-97.72,142.71-105.55,230.21-.81,8.95-1.17,17.91-1.26,26.86,0,.4-.09,.81-.09,1.21,0,.13,.05,.27,.05,.4,0,2.56,0,5.13,.09,7.65,10.35-13.14,23.39-25.46,40.36-38.24,.94-.72,1.89-1.44,2.88-2.16,.18-1.57,.36-3.15,.54-4.77,.05-.54,.09-1.08,.14-1.62,.05-.31,.14-.58,.18-.85,.76-5.17,1.57-10.35,2.52-15.52,1.84-9.81,4.14-19.48,6.84-29.02,2.7-9.58,5.8-18.99,9.27-28.25,.67-1.84,1.35-3.73,2.07-5.58,.23-.45,.41-.86,.59-1.3,.54-1.17,1.12-2.56,1.35-3.06,1.93-4.5,4-9,6.16-13.5,8.73-18.18,18.99-35.54,30.46-51.96,1.26-1.89,2.61-3.64,3.91-5.49,.09-.14,.14-.22,.23-.36t.09-.09c.59-.81,1.21-1.58,1.8-2.38,3.19-4.23,6.48-8.32,9.85-12.37,5.8-7.02,11.88-13.86,18.13-20.38,27.89,24.38,58.67,45.08,91.33,62.22-6.66,23.08-11.79,46.61-15.52,70.41,1.48-.18,3.01-.31,4.5-.4,11.11-.86,24.02-1.57,37.66-.36,3.06-17.41,6.93-34.64,11.61-51.6,3.51,1.48,6.97,3.01,10.48,4.41,54.53,21.55,112.43,32.98,170.65,35.09v46.02c14.49,5.08,28.39,10.66,41.57,16.33v-62.4c25.06-.99,49.98-3.64,74.64-8.01,36.4-6.43,72.25-16.92,106.54-31.31,3.46,12.55,6.48,25.28,9.04,38.06,1.93,9.54,3.6,19.12,4.99,28.7,.36,2.2,.63,4.41,.94,6.61,.05,.31,.18,1.48,.32,2.2,0,.27,.05,.49,.05,.58,.63,5.13,1.17,10.26,1.66,15.39,1.26,12.87,2.02,25.82,2.43,38.78-24.97-.14-49.89-.27-74.86-.41-21.55-.14-43.06-.23-64.61-.36,27.04,13.09,54.44,27.62,82.65,43.87,18.9,.13,37.84,.22,56.73,.31-.4,10.93-1.03,21.82-2.02,32.71,13.5,8.5,26.41,16.92,38.83,25.28,.86-6.52,1.62-13.09,2.25-19.62,1.26-12.69,2.07-25.42,2.52-38.15,25.69,.14,51.38,.27,77.02,.4,24.65,.14,49.31,.27,74.01,.4,4.18,.05,8.37,.09,12.55,.14-.18,2.38-.27,4.81-.49,7.2-.18,2.29-.4,4.5-.67,6.75-.05,.54-.09,1.12-.14,1.71,0,.09-.09,.54-.23,1.53-.81,5.17-1.57,10.39-2.56,15.52-3.69,19.8-9.13,39.23-16.2,57.99-.76,1.89-1.49,3.82-2.25,5.71-.05,.05-.05,.09-.05,.13-.4,.9-.76,1.85-1.12,2.74-2.16,4.99-4.41,9.94-6.75,14.85-4.32,8.95-9,17.73-13.99,26.27-1.53,2.65-3.15,5.31-4.81,7.92,10.84,9.27,21.59,18.63,32.17,27.89,26.27-41.03,45.21-87.01,53.76-135.64,3.02-17.1,4.86-34.42,5.53-51.78,1.75-3.15,2.79-6.7,2.65-10.44-.18-3.46-1.08-6.75-2.52-9.67ZM631.88,151.5c-8.14,15.7-15.3,31.94-21.64,48.5-2.83-1.53-5.71-3.06-8.5-4.68-18.4-10.39-36.08-22.18-52.91-35.18l-4.18-3.24c-.72-.63-3.6-2.97-4.32-3.55-1.44-1.17-2.92-2.43-4.36-3.69,1.62-1.48,3.28-2.88,4.95-4.32,.94-.77,3.51-2.83,3.82-3.06,1.98-1.58,3.91-3.1,5.94-4.63,16.69-12.78,34.24-24.34,52.46-34.6,9.31-5.22,18.81-10.12,28.39-14.71,2.47-1.17,4.86-2.29,7.33-3.42,1.12-.54,2.29-1.04,3.42-1.53,.18-.09,.32-.14,.49-.23,4.99-2.11,9.99-4.18,15.07-6.16,11.92-4.68,24.02-8.82,36.26-12.55-25.19,25.19-45.98,55.65-62.22,87.06Zm184.01,103.79c-11.16-.45-22.31-1.21-33.47-2.34-4.59-.49-9.22-1.08-13.86-1.71-.9-.14-5.22-.72-6.16-.86-3.37-.54-6.7-1.12-10.08-1.71-11.11-1.93-22.13-4.27-33.02-6.97-21.42-5.26-42.47-11.97-62.99-20.07-2.79-1.12-5.58-2.29-8.37-3.46,.23-.63,.4-1.21,.63-1.8,.72-1.89,1.44-3.73,2.16-5.62,.4-1.03,.81-2.11,1.21-3.19,.05-.04,.09-.18,.14-.31,.27-.58,.54-1.3,.67-1.58,.45-1.03,.86-2.07,1.3-3.1,.9-2.02,1.75-4.09,2.7-6.12,3.42-7.83,7.11-15.48,11.02-23.03,7.38-14.22,15.57-27.98,24.65-41.12,.99-1.44,2.02-2.88,3.06-4.32,.23-.31,.4-.63,.63-.95,.18-.18,.32-.4,.58-.72,2.38-3.15,4.81-6.25,7.29-9.31,4.59-5.62,9.36-11.07,14.31-16.29,4.86-5.08,9.85-9.99,15.07-14.62,2.38-2.11,4.86-4.14,7.29-6.25,.36-.27,.67-.54,1.03-.81,1.62-1.21,3.19-2.43,4.81-3.6,10.53-7.69,21.69-14.22,33.34-19.75,.23-.09,.45-.18,.67-.32,.05,0,.09,0,.14-.05h-.09c.18-.09,.32-.14,.4-.18-.09,.05-.18,.14-.31,.18,.27-.14,.49-.23,.72-.32,1.39-.58,2.74-1.12,4.14-1.62,3.1-1.21,6.25-2.29,9.45-3.33,5.94-1.89,11.97-3.42,18.09-4.59,.94-.18,1.89-.32,2.83-.5V255.29Zm199.66-33.07c-10.21,4-20.52,7.65-30.95,10.93-21.42,6.75-43.19,12.01-65.19,15.84-2.83,.45-5.62,.94-8.41,1.39-.81,.09-5.58,.77-6.25,.86-5.17,.67-10.35,1.3-15.52,1.84-10.57,1.08-21.15,1.75-31.76,2.16V117.58c0-24.16,.4-48.36,.31-72.57,1.26,.23,2.52,.45,3.78,.72,6.3,1.26,12.51,2.88,18.63,4.9,2.79,.9,5.53,1.89,8.28,2.97,1.58,.58,3.1,1.26,4.68,1.89,.05,0,.09,.05,.14,.05,.27,.14,.54,.27,.67,.31,.09,.05,.14,.09,.23,.09,5.94,2.79,11.74,5.89,17.32,9.27,5.67,3.37,11.11,7.06,16.42,10.98,1.26,.94,2.52,1.89,3.73,2.83,0,0,.22,.18,.49,.4h.05c.14,.09,.32,.22,.54,.4,.09,.14,.22,.23,.31,.32,.09,.09,.18,.14,.27,.23,.14,.09,.27,.18,.32,.22,2.47,2.11,4.95,4.23,7.38,6.39,10.75,9.72,20.65,20.38,29.74,31.72,2.29,2.83,4.81,5.67,6.79,8.77,.27,.36,.54,.76,.76,1.12,1.17,1.62,2.34,3.28,3.51,4.95,4.54,6.61,8.82,13.36,12.91,20.29,8.41,14.17,15.93,28.93,22.58,44.13,.77,1.75,1.57,3.55,2.34,5.4,.22,.54,1.21,3.02,1.66,4,1.39,3.55,2.79,7.15,4.14,10.75-3.28,1.39-6.57,2.79-9.9,4.09Zm36.62-48.5c-17.77-39.86-42.11-78.51-73.06-109.33,2.34,.72,4.72,1.39,7.06,2.11,10.66,3.42,21.24,7.2,31.67,11.34,4.27,1.71,8.46,3.55,12.69,5.31,.67,.32,4.72,2.07,5.44,2.43,2.92,1.35,5.85,2.74,8.77,4.14,18.99,9.22,37.43,19.75,55.11,31.54,8.64,5.8,17.05,11.88,25.33,18.27,.77,.63,4.41,3.55,4.54,3.64,1.3,1.08,2.61,2.07,3.87,3.19,1.26,1.08,2.56,2.11,3.82,3.24-1.49,1.26-2.92,2.52-4.41,3.73-.58,.49-3.96,3.19-4.41,3.64-1.75,1.35-3.51,2.74-5.26,4.09-8.28,6.39-16.78,12.42-25.46,18.13-11.34,7.47-22.99,14.4-34.87,20.83-3.37-8.86-6.97-17.64-10.84-26.32Zm211,216.94c-21.78-.09-43.59-.23-65.37-.32-32.21-.18-64.43-.36-96.64-.54h-1.49c-1.62-50.25-9-100.37-22.9-148.47,32.66-17.1,63.53-37.88,91.6-62.31,6.7,7.11,13.18,14.35,19.35,21.96,3.19,3.87,6.3,7.83,9.36,11.83,.49,.67,1.03,1.39,1.57,2.11,.18,.27,.36,.58,.5,.72,1.44,2.02,2.92,4.05,4.32,6.12,5.8,8.32,11.25,16.96,16.33,25.82,4.95,8.59,9.58,17.37,13.81,26.32,1.98,4.23,3.91,8.55,5.8,12.82,.23,.54,.49,1.08,.72,1.67l.04,.05c0,.09,.05,.18,.09,.27,.05,.22,.23,.58,.41,1.08,1.08,2.79,2.16,5.53,3.15,8.32,6.84,18.58,12.06,37.84,15.61,57.41,.86,4.63,1.39,9.31,2.25,13.99,.09,.9,.18,1.71,.27,2.56,.27,2.52,.54,5.04,.76,7.56,.32,3.64,.54,7.33,.72,11.07-.09-.05-.18-.05-.27-.05Z"/>
        <g>
          <path class="cls-2" d="M1285.31,691.88c-7.02,0-13.5-.09-19.98,0-27.71,.31-55.47-.27-83.14,1.3-34.19,1.98-68.47,4.72-102.44,9.13-56.33,7.33-112.43,15.93-168.53,24.65-33.52,5.22-66.72,12.15-100.19,17.55-41.84,6.79-83.95,8.77-126.33,6.25-28.75-1.75-57.05-5.94-84.9-12.96-21.28-5.35-41.53-13.54-61.28-23.26-32.89-16.15-63.35-35.99-90.56-60.38-16.11-14.44-30.46-30.82-45.62-46.34-1.17-1.17-2.38-2.25-4.45-4.23-2.79,6.75-5.22,12.55-7.56,18.36-8.28,20.25-19.57,38.56-33.29,55.61-16.87,20.92-35.32,40.13-56.37,56.73-31.45,24.79-65.28,45.84-100.28,65.24-33.74,18.72-68.88,34.64-105.05,47.91-30.28,11.11-61.5,19.71-92.32,29.42-.67,.18-1.48,0-3.01,0,2.92-4.72,5.67-8.86,8.14-13.18,28.3-49.4,50.16-101.72,69.78-155.08,11.2-30.37,21.19-61.19,33.11-91.24,12.15-30.55,28.3-58.98,50.3-83.82,22-24.79,48.95-42.06,79.27-55.16,33.25-14.35,68.11-19.8,103.66-22.22,.09,0,.13,0,.22-.05l1.21-.05c1.21-.05,2.38-.18,3.55-.23,1.57-.09,3.1-.18,4.68-.13,.09,0,.14,.05,.22,.05h.09s3.87-.36,8.5,2.38c2.16,1.3,4.5,3.28,6.61,6.34,.67,.94,1.3,1.98,1.93,3.1,5.4-8.86,10.8-17.73,16.74-26.23,10.57-15.16,24.34-27.58,39.1-38.69,8.95-6.7,18.22-13.05,27.58-19.12,21.64-14.04,45.3-23.71,70.14-30.28,20.61-5.44,41.48-9.27,62.9-10.8,11.83-.85,23.3-1.44,35.14-.14,11.11,1.26,22.49-.18,33.61,.68,17.19,1.35,34.46,2.79,51.38,5.76,16.87,2.97,33.34,8.32,50.16,11.92,42.79,9.13,82.47,26.81,121.92,44.76,53.72,24.38,105.1,53.04,155.17,84.36,36.89,23.08,72.7,47.55,106.9,74.28,32.8,25.64,64.11,53.22,95.47,80.62,15.48,13.5,29.56,28.52,44.27,42.92,1.3,1.26,2.34,2.79,3.55,4.23Z"/>
          <path class="cls-1" d="M1113.81,634.54c-22.93-7.12-63.38-19.71-86.06-26.75-13.31-3.68-28.34-7.97-43.72-12.31,4.98-24.32,33.69-40.72,54.02-51.45-21.65,9.93-51.69,25.17-58.16,50.28-22.14-6.23-44.77-12.46-63.96-17.05-31.39-8.01-63.19-15.49-95.18-22.43,1.13-2.73,2.51-5.55,3.98-8.16,14.75-26.06,40.13-44.52,66.72-57.35,0,0,13.87-6.03,13.87-6.03-37.11,12.04-75.32,33.39-93,69.7-47.29-10.11-95-18.87-142.66-25.97,9.77-39.31,43.35-69.08,79.05-85.96,5.64-2.53,11.4-4.82,17.13-7.25-5.9,1.9-11.88,3.67-17.78,5.69-40.06,14.68-77.77,43.86-91.36,85.59-14.87-2.12-29.73-4.13-44.57-5.9-30.27-3.24-60.38-6.15-90.53-8.09,4.75-10.76,11.02-21.6,18.01-31.53,16.2-23.06,37.05-43.06,61.19-57.83,11.99-7.76,25.12-13.52,38.45-18.86-56.16,16.01-105.17,54.98-131.97,107.33-33.92-1.78-67.94-2.12-102.37,.13l1.99,17.89c16.26-1.75,33.58-2.13,50.46-2.6,16.1-.12,32.21,.13,48.3,.57,5.29,41.38,23.09,80.26,50.1,111.76,9.23,11.17,20.15,20.72,31.23,29.79-39.56-35.92-65.45-87.88-68.38-141.22,45.17,1.64,90.28,5.41,135.25,10.76,4.9,42.27,22.83,82.05,50.36,114.16,9.23,11.17,20.15,20.72,31.23,29.79-39.84-36.18-65.81-88.64-68.42-142.38,48.13,6.07,96.08,13.97,143.74,23.12-.43,9.88,.94,19,3.25,28.1,6.36,24.66,21.05,46.25,39.43,63.44,3.69,3.35,7.58,6.48,11.34,9.72-3.52-3.52-7.14-6.92-10.54-10.51-21.93-23.62-37.94-56.49-34.81-89.1,40.21,7.86,80.21,16.59,119.93,25.88,10.94,2.71,25.64,6.47,40.59,10.32,2.04,18.03,8.76,35.43,19.91,49.71,3.84,5.16,8.58,9.54,13.39,13.7-17.33-15.89-27.33-38.98-28.92-62.28,15.46,3.99,30.82,7.97,42.21,10.87,22.81,6.55,63.19,18.14,86.54,24.84l98.12,31.07s-97.45-33.22-97.45-33.22Z"/>
          <path class="cls-1" d="M369.37,464.5c-2.11-3.06-4.45-5.04-6.61-6.34-18.85,33.4-39.22,66.03-60.73,97.93-12.86-5.22-25.94-7.17-39.53-6.74-13.22,.37-26.19,3.73-38.1,9.24,23.47-7.97,50.65-6.48,72.57,5.03-16.46,24.09-33.58,47.74-51.26,70.92-12.4-4.8-25.02-6.62-38.11-6.21-13.22,.37-26.19,3.73-38.1,9.24,22.82-7.75,49.1-6.5,70.68,4.14-4.83,6.27-9.68,12.54-14.59,18.74-12.2,15.5-24.87,30.79-37.86,45.88-11.95-6.75-26.17-7.37-39.21-4.16-4.41,1.02-8.62,2.7-12.79,4.42,2.16-.65,4.29-1.37,6.45-1.96,13.99-3.67,30.37-3,42.64,5.06-16.68,19.25-33.94,38.1-51.64,56.43-.13-.11-.24-.22-.38-.33,0,0-.08,.17-.18,.4-10.53-4.23-22.44-4.66-32.91-.26,10.28-3.62,21.95-2.52,31.67,2.06-13.44,13.87-27.11,27.46-40.99,40.66-7.11,6.39-24.25,21.77-32.89,29.51l21.78-18.81c5.89-4.9,17.46-15.34,22.94-20.7,8.03-7.3,20.34-19.14,30.94-29.63,8.55,7.51,8.87,21.41,8.96,32.11,.53-11.26,1.22-25.21-7.39-33.66,4.46-4.44,8.59-8.6,11.81-11.95,13.97-14.4,27.63-29.1,41.03-44.03,11.33,13.2,13.16,32.68,11.5,49.48,3.18-17.78,2.81-37.78-8.49-52.82,18.39-20.6,36.23-41.69,53.51-63.23,3.19,2.66,6.3,6.3,8.51,9.79,9.09,13.85,11.04,31.27,9.35,47.52,5.35-21.81,3.52-46.92-12.45-64.08,17.98-22.65,35.32-45.81,52.03-69.42,6.38,8.44,11.36,18.67,14.35,28.81,3.77,12.29,4.68,25.33,3.3,38.16,5.84-25.19,1.48-52.3-12.47-74.27,22.05-31.53,42.96-63.86,62.66-96.92Z"/>
        </g>
      </g>
      <g>
        <path class="cls-2" d="M384.98,795.75h64.28v21.43h-40.71v39.63h32.35v21.43h-32.35v46.06h40.71v21.43h-64.28v-149.98Z"/>
        <path class="cls-2" d="M462.75,795.75h29.57l22.93,89.77h.43v-89.77h21v149.98h-24.21l-28.28-109.48h-.43v109.48h-21v-149.98Z"/>
        <path class="cls-2" d="M548.03,795.75h23.78l15.43,116.34h.43l15.43-116.34h21.64l-22.71,149.98h-31.28l-22.71-149.98Z"/>
        <path class="cls-2" d="M636.09,795.75h23.57v149.98h-23.57v-149.98Z"/>
        <path class="cls-2" d="M677.23,795.75h34.92c24.43,0,34.92,11.36,34.92,34.49v9.21c0,15.43-4.93,25.28-15.43,29.57v.43c11.78,3.64,15.64,14.78,15.64,31.71v26.35c0,7.28,.21,12.64,2.57,18.21h-24c-1.29-3.86-2.14-6.21-2.14-18.43v-27.42c0-13.93-4.07-18.43-14.78-18.43h-8.14v64.28h-23.57v-149.98Zm32.14,64.28c8.78,0,14.14-3.86,14.14-15.86v-11.57c0-10.72-3.64-15.43-12-15.43h-10.71v42.85h8.57Z"/>
        <path class="cls-2" d="M761.86,910.16v-78.85c0-24,12.64-37.71,35.78-37.71s35.78,13.71,35.78,37.71v78.85c0,24-12.64,37.71-35.78,37.71s-35.78-13.71-35.78-37.71Zm47.99,1.5v-81.84c0-10.71-4.71-14.78-12.21-14.78s-12.21,4.07-12.21,14.78v81.84c0,10.72,4.71,14.78,12.21,14.78s12.21-4.07,12.21-14.78Z"/>
        <path class="cls-2" d="M849.28,795.75h29.57l22.93,89.77h.43v-89.77h21v149.98h-24.21l-28.28-109.48h-.43v109.48h-21v-149.98Z"/>
        <path class="cls-2" d="M940.77,795.75h33.64l15,107.34h.43l15-107.34h33.64v149.98h-22.28v-113.56h-.43l-17.14,113.56h-19.71l-17.14-113.56h-.43v113.56h-20.57v-149.98Z"/>
        <path class="cls-2" d="M1056.04,795.75h64.28v21.43h-40.71v39.63h32.35v21.43h-32.35v46.06h40.71v21.43h-64.28v-149.98Z"/>
        <path class="cls-2" d="M1133.82,795.75h29.57l22.93,89.77h.43v-89.77h21v149.98h-24.21l-28.28-109.48h-.43v109.48h-21v-149.98Z"/>
        <path class="cls-2" d="M1243.73,817.18h-24.64v-21.43h72.85v21.43h-24.64v128.55h-23.57v-128.55Z"/>
      </g>
      <g>
        <path class="cls-2" d="M384.06,1069.89v-65.37c0-18.78,9.74-29.9,28.17-29.9s28.17,11.13,28.17,29.9v12.87h-18.08v-14.08c0-8-3.83-11.3-9.56-11.3s-9.56,3.3-9.56,11.3v67.98c0,8,3.83,11.13,9.56,11.13s9.56-3.13,9.56-11.13v-18.6h18.08v17.21c0,18.78-9.74,29.9-28.17,29.9s-28.17-11.13-28.17-29.9Z"/>
        <path class="cls-2" d="M466.65,976.35h25.9l19.82,121.7h-19.13l-3.48-24.16v.35h-21.73l-3.48,23.82h-17.74l19.82-121.7Zm20.86,81.37l-8.52-60.16h-.35l-8.35,60.16h17.21Z"/>
        <path class="cls-2" d="M521.59,976.35h28.34c19.82,0,28.34,9.22,28.34,27.99v7.48c0,12.52-4,20.52-12.52,23.99v.35c9.56,2.96,12.69,12,12.69,25.73v21.38c0,5.91,.17,10.26,2.09,14.78h-19.47c-1.04-3.13-1.74-5.04-1.74-14.95v-22.25c0-11.3-3.3-14.95-12-14.95h-6.61v52.16h-19.12v-121.7Zm26.08,52.16c7.13,0,11.48-3.13,11.48-12.87v-9.39c0-8.7-2.96-12.52-9.74-12.52h-8.69v34.77h6.95Z"/>
        <path class="cls-2" d="M591.66,976.35h52.16v17.39h-33.03v32.16h26.25v17.39h-26.25v37.38h33.03v17.39h-52.16v-121.7Z"/>
        <path class="cls-2" d="M697.37,976.35h25.9l19.82,121.7h-19.13l-3.48-24.16v.35h-21.73l-3.48,23.82h-17.74l19.82-121.7Zm20.86,81.37l-8.52-60.16h-.35l-8.35,60.16h17.21Z"/>
        <path class="cls-2" d="M748.48,1069.19v-6.96h18.08v8.35c0,8.69,3.83,11.82,9.91,11.82s9.91-3.13,9.91-12.17c0-10.09-3.83-16.52-16.34-27.47-16-14.08-21.21-23.99-21.21-37.9,0-19.13,9.91-30.25,28.51-30.25s27.82,11.13,27.82,30.6v5.04h-18.08v-6.26c0-8.69-3.48-12-9.56-12s-9.56,3.3-9.56,11.65c0,8.87,4,15.3,16.52,26.25,16,14.08,21.04,23.82,21.04,38.94,0,19.82-10.08,30.95-28.86,30.95s-28.17-11.13-28.17-30.6Z"/>
        <path class="cls-2" d="M813.16,1069.19v-6.96h18.08v8.35c0,8.69,3.83,11.82,9.91,11.82s9.91-3.13,9.91-12.17c0-10.09-3.82-16.52-16.34-27.47-16-14.08-21.21-23.99-21.21-37.9,0-19.13,9.91-30.25,28.51-30.25s27.82,11.13,27.82,30.6v5.04h-18.08v-6.26c0-8.69-3.48-12-9.56-12s-9.56,3.3-9.56,11.65c0,8.87,4,15.3,16.52,26.25,16,14.08,21.04,23.82,21.04,38.94,0,19.82-10.08,30.95-28.86,30.95s-28.17-11.13-28.17-30.6Z"/>
        <path class="cls-2" d="M879.75,1069.19v-63.98c0-19.47,10.26-30.6,29.03-30.6s29.04,11.13,29.04,30.6v63.98c0,19.47-10.26,30.6-29.04,30.6s-29.03-11.13-29.03-30.6Zm38.94,1.22v-66.41c0-8.69-3.83-12-9.91-12s-9.91,3.3-9.91,12v66.41c0,8.7,3.83,12,9.91,12s9.91-3.3,9.91-12Z"/>
        <path class="cls-2" d="M949.47,1069.89v-65.37c0-18.78,9.74-29.9,28.17-29.9s28.17,11.13,28.17,29.9v12.87h-18.08v-14.08c0-8-3.83-11.3-9.56-11.3s-9.56,3.3-9.56,11.3v67.98c0,8,3.83,11.13,9.56,11.13s9.56-3.13,9.56-11.13v-18.6h18.08v17.21c0,18.78-9.74,29.9-28.17,29.9s-28.17-11.13-28.17-29.9Z"/>
        <path class="cls-2" d="M1017.28,976.35h19.12v121.7h-19.12v-121.7Z"/>
        <path class="cls-2" d="M1065.44,976.35h25.9l19.82,121.7h-19.13l-3.48-24.16v.35h-21.73l-3.48,23.82h-17.74l19.82-121.7Zm20.86,81.37l-8.52-60.16h-.35l-8.35,60.16h17.21Z"/>
        <path class="cls-2" d="M1127.34,993.74h-19.99v-17.39h59.11v17.39h-19.99v104.31h-19.13v-104.31Z"/>
        <path class="cls-2" d="M1175.67,976.35h52.16v17.39h-33.03v32.16h26.25v17.39h-26.25v37.38h33.03v17.39h-52.16v-121.7Z"/>
        <path class="cls-2" d="M1235.83,1069.19v-6.96h18.08v8.35c0,8.69,3.83,11.82,9.91,11.82s9.91-3.13,9.91-12.17c0-10.09-3.82-16.52-16.34-27.47-16-14.08-21.21-23.99-21.21-37.9,0-19.13,9.91-30.25,28.51-30.25s27.82,11.13,27.82,30.6v5.04h-18.08v-6.26c0-8.69-3.48-12-9.56-12s-9.56,3.3-9.56,11.65c0,8.87,4,15.3,16.52,26.25,16,14.08,21.04,23.82,21.04,38.94,0,19.82-10.08,30.95-28.86,30.95s-28.17-11.13-28.17-30.6Z"/>
      </g>
      <rect class="cls-2" x="384.06" y="1120.76" width="908.79" height="62.99"/>
    </g>
  </g>
</svg>